<?xml version="1.0" encoding="utf-8"?><svg xml:space="preserve" viewBox="0 0 100 100" y="0" x="0" xmlns="http://www.w3.org/2000/svg" id="圖層_1" version="1.1" width="287px" height="287px" xmlns:xlink="http://www.w3.org/1999/xlink" style="width:100%;height:100%;background-size:initial;background-repeat:initial;background-position-y:initial;background-position-x:initial;background-origin:initial;background-color:initial;background-clip:initial;background-attachment:initial;animation-play-state:paused" ><g class="ldl-scale" style="transform-origin:50% 50%;transform:rotate(0deg) scale(0.8, 0.8);animation-play-state:paused" ><path stroke-miterlimit="10" stroke-width="3.5" fill="none" stroke-linecap="round" stroke="#e15b64" d="M9.3 48.4V50c0 6.3.5 12.6 1.6 18.9.7 4.3 4.2 7.8 8.6 8.4 20.4 2.9 40.8 2.9 61.1 0 4.4-.6 7.8-4 8.6-8.4 1.1-6.3 1.6-12.6 1.6-18.9 0-6.3-.5-12.6-1.6-18.9-.7-4.3-4.2-7.8-8.6-8.4-20.4-2.9-40.8-2.9-61.1 0-4.4.6-7.8 4-8.6 8.4" style="stroke:rgb(255, 255, 255);animation-play-state:paused" ></path>
<path stroke-miterlimit="10" stroke-width="3.5" fill="none" stroke-linecap="round" stroke="#e15b64" d="M9.8 39.1c0 .2 0 .5-.1.7" style="stroke:rgb(255, 255, 255);animation-play-state:paused" ></path>
<path stroke-miterlimit="10" stroke-width="3.5" fill="none" stroke-linecap="round" stroke="#e15b64" d="M42 42.3v-2.6c0-1.4 1.5-2.2 2.6-1.5l16.9 10.4c1.1.7 1.1 2.3 0 3L44.6 61.8c-1.2.7-2.6-.1-2.6-1.5V48.9" style="stroke:rgb(255, 255, 255);animation-play-state:paused" ></path>
<metadata xmlns:d="https://loading.io/stock/" style="animation-play-state:paused" ><d:name style="animation-play-state:paused" >video</d:name>
<d:tags style="animation-play-state:paused" >video,television,screen,movie,clip,youtube,tudou,youku,monitor</d:tags>
<d:license style="animation-play-state:paused" >by</d:license>
<d:slug style="animation-play-state:paused" >5xhejr</d:slug></metadata></g><!-- generated by https://loading.io/ --></svg>