<svg viewBox="15 16 50 50" xmlns="http://www.w3.org/2000/svg" width="614" height="614" style="width:100%;height:100%;background-size:initial;background-repeat:initial;background-position-y:initial;background-position-x:initial;background-origin:initial;background-color:initial;background-clip:initial;background-attachment:initial;animation-play-state:paused"><g class="prefix__ldl-scale" style="transform-origin:50% 50%;animation-play-state:paused"><path stroke-miterlimit="10" stroke-width="3.2" stroke="#fff" fill="transparent" d="M74 53.12c0-1.6-.08-3.12-.32-4.72-2.24-16.08-15.76-28.48-32-29.28C22.16 18.08 6 33.68 6 53.04v.08c0 4.4 3.68 7.92 8.08 7.92H66c4.32-.08 8-3.52 8-7.92z" style="animation-play-state:paused"/><path d="M40 19.04v13.52M23.04 23.6l3.36 5.84M10.56 36l5.84 3.36M56.96 23.6l-3.36 5.84M69.44 36l-5.84 3.36" stroke-miterlimit="10" stroke-linecap="round" stroke-width="2.176" stroke="#fff" fill="none" style="animation-play-state:paused"/><path fill="#fff" d="M37.36 54.8l11.76-22.24c.16-.4.64-.48 1.04-.32.4.16.56.56.4.96l-7.92 23.92c-1.36 3.04-6.64.8-5.28-2.32z" style="animation-play-state:paused"/></g></svg>